# xmcd
#
# Track frame offsets: 
#        150
#        14388
#        36581
#        54399
#        72329
#        94870
#        113928
#        131091
#        148547
#        170141
#        187611
#
# Disc length: 2858 seconds
#
# Revision: 0
# Processed by: cddbd v1.5.2PL0 Copyright (c) Steve Scherf et al.
# Submitted via: ExactAudioCopy v0.99pb3
#
DISCID=9d0b280b
DTITLE=Earl Gaines - House Party
DYEAR=2002
DGENRE=Blues
TTITLE0=24 Hours A Day
TTITLE1=Hey, Hey, Hey, Hey
TTITLE2=Tell Me Tonight
TTITLE3=House Party
TTITLE4=Trust In Me
TTITLE5=You Don't Know, But I Do!
TTITLE6=Just A 'Ennie Wennie' Bit
TTITLE7=Somebody, Somewhere
TTITLE8=In A World Like This
TTITLE9=Every Night Of The Week
TTITLE10=Olene
EXTD=
EXTT0=
EXTT1=
EXTT2=
EXTT3=
EXTT4=
EXTT5=
EXTT6=
EXTT7=
EXTT8=
EXTT9=
EXTT10=
PLAYORDER=
